<svg xmlns="http://www.w3.org/2000/svg" viewBox="0 0 500 174.86"><defs><style>.cls-1{fill:#1d1d1b;}.cls-2{fill:#9fd6f6;}.cls-3{fill:#009fe3;}.cls-4{fill:#007ac2;}</style></defs><title>rotoplas-logo</title><g id="Capa_2" data-name="Capa 2"><g id="Capa_1-2" data-name="Capa 1"><path class="cls-1" d="M458.82,65.16a7.38,7.38,0,0,1,3.5.92A6.54,6.54,0,0,1,465,68.71a7.28,7.28,0,0,1,.95,3.56,7.16,7.16,0,0,1-.94,3.54,6.68,6.68,0,0,1-2.63,2.64,7.2,7.2,0,0,1-7.08,0,6.7,6.7,0,0,1-2.64-2.64,7.11,7.11,0,0,1,0-7.1,6.54,6.54,0,0,1,2.66-2.63,7.35,7.35,0,0,1,3.5-.92m0,1.18a6,6,0,0,0-2.92.77,5.48,5.48,0,0,0-2.21,2.19,5.88,5.88,0,0,0,0,5.92,5.58,5.58,0,0,0,2.19,2.2,5.92,5.92,0,0,0,5.91,0,5.58,5.58,0,0,0,2.19-2.2,5.91,5.91,0,0,0,0-5.92,5.44,5.44,0,0,0-2.22-2.19,6,6,0,0,0-2.91-.77m-3.11,9.87V68.54h2.62a6.23,6.23,0,0,1,2,.22,1.85,1.85,0,0,1,1,.74,1.89,1.89,0,0,1,.35,1.13,2,2,0,0,1-.6,1.46,2.33,2.33,0,0,1-1.59.7,2,2,0,0,1,.65.41,8.18,8.18,0,0,1,1.13,1.51l.94,1.5h-1.51L460,75a6.63,6.63,0,0,0-1.29-1.78,1.66,1.66,0,0,0-1-.28h-.74v3.26Zm1.22-4.31h1.51a2.33,2.33,0,0,0,1.48-.33,1,1,0,0,0,.38-.84,1.07,1.07,0,0,0-.18-.61,1.27,1.27,0,0,0-.53-.41,4.16,4.16,0,0,0-1.24-.13h-1.42Z"/><path class="cls-1" d="M394.84,75.49V55.76c0-5.42-1.14-9.63-3.42-12.67a15.08,15.08,0,0,0-8.37-5.82,25.71,25.71,0,0,0-11.67.11q-9,1.89-19.1,8.78v15.6c4.77-4.7,9.51-7.74,14-9,3.29-.95,6.51-1.49,8.15-.69,2.51,1.21,2.42,3.12,2.48,5.39q-30.42,10.31-30.43,27.94c0,5.2,1.79,9.27,5.39,12.14a14.09,14.09,0,0,0,12.25,2.89,16.83,16.83,0,0,0,6.71-3.16,30.06,30.06,0,0,0,6.08-6.48c0,5.4,2.82,5,4.12,4.74s17.35-3.65,17.35-3.65c-2.29-.89-4.1-3.22-3.52-16.36m-17.95-.79a13.68,13.68,0,0,1-1.58,6.72,6.58,6.58,0,0,1-4.54,3.5,4.68,4.68,0,0,1-4.37-1.18A6.08,6.08,0,0,1,364.53,79q0-8.1,12.36-11.83Z"/><path class="cls-1" d="M204.51,88l-8.85,1.87v24c0,3.71,1.46,5.23,4.43,4.61a9.42,9.42,0,0,0,4.42-2.59v15.89a39.23,39.23,0,0,1-11,4.24c-6.1,1.28-10.55.76-13.41-1.53s-4.29-6.49-4.29-12.55V94.07l-7.14,1.51V81.16s5.89-1.26,7.19-1.51c-.78-14,3-15.21,7.17-16.17l11.81-2.24v14.4l9.71-2Z"/><path class="cls-1" d="M331.83,27.81c-1.84.53-8.8,3.32-9,15.65v64.09l10.64-2.23c1.85-.54,8.82-3.33,9-15.67V25.57Z"/><path class="cls-1" d="M312.92,58.68Q307.37,51,298.08,53a16.93,16.93,0,0,0-7.3,3.52,24,24,0,0,0-5.2,6.07c0-2.75.35-5.48-2.65-5.07-3.11.63-17.67,3.76-17.67,3.76a4.6,4.6,0,0,1,.93,2.6c.11,1.68-.05,83.3-.05,83.3l12-2.54c4.27-1.18,7.65-1.83,7.65-11.71l0-20.61a16.14,16.14,0,0,0,5.24,2.42,13.52,13.52,0,0,0,5.77,0,20.84,20.84,0,0,0,11.1-6.6,38.35,38.35,0,0,0,7.73-13,48,48,0,0,0,2.82-16.59q0-12.15-5.52-19.83M296.47,94.23c-1.3,2.81-3.13,4.45-5.47,4.94a4.92,4.92,0,0,1-3-.2,6.69,6.69,0,0,1-2.48-1.9V82.82a18.3,18.3,0,0,1,1.53-8.21,6.37,6.37,0,0,1,4.51-3.56c2.06-.42,3.71.41,5,2.51s1.89,5.39,1.89,9.86a25.68,25.68,0,0,1-2,10.81"/><path class="cls-1" d="M437.92,79.26a32.36,32.36,0,0,1-17.49,9.55,39.58,39.58,0,0,1-19.26-1.09V69.83q9.39,5.78,16.25,4.34A9.44,9.44,0,0,0,422,71.82a5.43,5.43,0,0,0,1.89-4.07,2.83,2.83,0,0,0-1.51-2.6,18.64,18.64,0,0,0-5.58-1.63c-6.56-1.17-10.78-3-12.71-5.64a13.86,13.86,0,0,1-2.88-8.33q0-8.17,6.75-14.59a33,33,0,0,1,16.38-8.44,35.64,35.64,0,0,1,16.53.36V44.33c-4.53-3-8.89-4-13-3.16A9.05,9.05,0,0,0,423.57,43a3.88,3.88,0,0,0-1.42,3.11c0,1.74,2,2.82,6.08,3.29q16.47,2,16.48,14.08c0,5.66-2.26,10.93-6.79,15.77"/><path class="cls-1" d="M160.49,89.53q-7.74-6.41-19.88-3.84a31.79,31.79,0,0,0-19.68,12.79,39.52,39.52,0,0,0-7.49,24q0,13.26,7.14,20.33c4.77,4.7,11.43,6.17,20,4.36a32.34,32.34,0,0,0,20.25-12.93,39.46,39.46,0,0,0,7.46-23.92q0-14.43-7.77-20.8m-14.3,37.33c-1.21,2.83-3.05,4.5-5.5,5s-4.21-.4-5.43-2.74-1.8-6.07-1.8-11.22.61-9.28,1.83-12.13,3.07-4.57,5.48-5.09,4.21.42,5.42,2.8S148,109.65,148,114.9s-.59,9.12-1.81,12"/><path class="cls-1" d="M254.38,70.17q-7.75-6.37-19.86-3.83a31.75,31.75,0,0,0-19.7,12.78,39.52,39.52,0,0,0-7.47,24q0,13.27,7.13,20.34t20,4.37a32.52,32.52,0,0,0,20.26-12.94A39.63,39.63,0,0,0,262.15,91q0-14.43-7.77-20.8M240.09,107.5c-1.2,2.83-3,4.5-5.49,5s-4.23-.4-5.43-2.74-1.82-6.09-1.82-11.23.6-9.27,1.83-12.14,3.06-4.57,5.48-5.07,4.23.42,5.43,2.78,1.8,6.16,1.8,11.43-.59,9.11-1.8,12"/><path class="cls-1" d="M108.24,127.49c-1-4.74-4-9.15-8.23-10.4,7.23-3.86,13.13-10.44,13.13-22.93,0-6.12-2.77-12.63-6.73-15.14s-8.61-3-17.28-1c0,0-22.47,4.87-30.43,6.22,1.63.2,2.13,1.21,2.16,3.12s0,74.68,0,74.68L71.56,160c5-1.17,8.81-2.91,9-11.4l-.07-22.85,1.76-.36c2.57-.53,6.31-.74,8.06,5,.91,3,2.21,12.09,3.12,17.95s4.81,6.12,7.81,5.6,14.42-2.88,15.47-3.14c-5.21-1.3-7-16.64-8.45-23.32m-17-20.69a10.74,10.74,0,0,1-6.65,3.9l-4,.82.09-16.91,4.93-1c2.7-.56,4.73-.3,6.06.74s2,2.89,2,5.52a11.19,11.19,0,0,1-2.33,6.92"/><path class="cls-2" d="M117.26,47.33a.38.38,0,0,1-.09-.09l-.12-.1c-3.41-3.21-8.75-3.32-8.75-3.32A45.69,45.69,0,0,0,98.08,44C45.57,48.85,0,95.17,0,150.81c0,6.61,1.29,18.16,2.08,24.05l1.3-.27c-.36-3.39-.91-10.89-.91-14.37,0-52.72,43.22-95.91,94.94-95.91,3.54,0,10.6.5,13,.46h.11a10.14,10.14,0,0,0,6.78-17.38l-.06-.05"/><path class="cls-3" d="M133.33,20.12c-3.23-1.1-9.31-1.57-13.22-1.57C82.19,18.55,48,35.4,25.76,61.71c-7.91,9.37-14.44,20.12-20.2,35.17l2.13-.47a102,102,0,0,1,20.47-28,106.74,106.74,0,0,1,76.13-30,134.52,134.52,0,0,1,15.27,1.35c4.23.56,8.08,1.23,10.06,1.36h0c.22,0,.43,0,.65,0a10.73,10.73,0,0,0,3.06-21"/><path class="cls-4" d="M76.2,19.84c6.14-1.73,15.38-3,20.24-3.9A8,8,0,0,0,95.84.05c-2.71-.25-6.79.4-10.9,1.42a76.87,76.87,0,0,0-20,8C43.8,22.17,35.1,36.86,29.41,47.27l2-.1C43.83,34.14,57.78,25,76.2,19.84"/><path class="cls-3" d="M297,141.14l-.24-10.37c0-1.63-.13-3-.24-4.24l2.13-.44.18,2.72.09,0a6.13,6.13,0,0,1,4.3-4,3.13,3.13,0,0,1,4,2.44,6.17,6.17,0,0,1,4.51-4.25,3.43,3.43,0,0,1,4.19,3,15.77,15.77,0,0,1,.28,2.43l.2,8.65-2.36.51-.22-8.44a9.32,9.32,0,0,0-.18-1.87c-.32-1.49-1.08-2.33-2.65-2-1.74.37-3.37,2.85-3.28,6.11l.17,7.5-2.33.5-.19-8.59a8.87,8.87,0,0,0-.19-1.76c-.25-1.19-.84-2.34-2.61-2s-3.46,3.17-3.37,6.28l.21,7.34Z"/><path class="cls-3" d="M329.83,134.13c-.17-.84-.32-2.2-.45-3.7l-.06,0c-.92,3.23-2.62,4.69-4.62,5.12-2.47.52-4.46-1.12-5-3.79-1-4.89,1.46-10.83,7.59-12.14a13.42,13.42,0,0,1,3.9-.25l.13,7.63a32.6,32.6,0,0,0,.79,6.64Zm-1-12.6a7,7,0,0,0-1.73.16c-3.63.78-5.79,5.22-5,9.12.33,1.57,1.21,3,3.07,2.59,2-.43,3.83-3.55,3.73-7.45Zm1.06-8.25-3,5-1.88.4,2-4.77Z"/><path class="cls-3" d="M335.27,130.42a6.63,6.63,0,0,0,3.21.23,2.49,2.49,0,0,0,2.19-2.87c-.24-1.11-.87-1.67-2.51-2.17a4.29,4.29,0,0,1-3.29-3c-.52-2.47,1.2-4.81,4.16-5.45a5.94,5.94,0,0,1,3.08.08l-.27,2a5.13,5.13,0,0,0-2.58-.12,2.32,2.32,0,0,0-2.05,2.66c.22,1,1,1.51,2.42,2,1.77.56,3.1,1.55,3.44,3.12.64,3-1.42,5.17-4.39,5.8a6.47,6.47,0,0,1-3.7-.24Z"/><path class="cls-3" d="M351.89,114.72l3,7.25c.67,1.56,1.06,2.57,1.43,3.59h.06c.18-1,.38-2.06.78-3.75l1.9-8.61,2.56-.55-3,11.82a26.91,26.91,0,0,1-3.28,8.42,9,9,0,0,1-3.58,3.31l-1-1.94a9.34,9.34,0,0,0,2.3-1.91,11.59,11.59,0,0,0,2-3.81,1.14,1.14,0,0,0,0-.66l-5.65-12.62Z"/><path class="cls-3" d="M369.92,125.58l-.24-10.38c0-1.63-.13-3-.24-4.23l2.13-.46.19,2.73.08,0a6.14,6.14,0,0,1,4.31-4,3.12,3.12,0,0,1,4,2.44,6.17,6.17,0,0,1,4.51-4.25,3.43,3.43,0,0,1,4.19,3,14.79,14.79,0,0,1,.27,2.43l.21,8.65-2.36.51-.21-8.44a9.35,9.35,0,0,0-.19-1.87c-.32-1.49-1.07-2.33-2.65-2-1.74.37-3.37,2.85-3.28,6.11l.17,7.5-2.32.5-.19-8.59a8.85,8.85,0,0,0-.2-1.76c-.25-1.19-.83-2.34-2.6-2s-3.46,3.17-3.37,6.28l.2,7.34Z"/><path class="cls-3" d="M403.38,117.58a10,10,0,0,1-4.4,2.13c-3.73.79-5.91-1.42-6.57-4.53-.91-4.24,1.21-9.71,5.74-10.68,2.68-.57,4.46.72,4.9,2.73.79,3.69-3.15,5.56-8.38,6.58a6,6,0,0,0,.86,2.62,3.29,3.29,0,0,0,3.55,1.22,8.19,8.19,0,0,0,3.57-1.8Zm-2.64-9.8c-.24-1.13-1.25-1.59-2.54-1.32-2.28.5-3.53,3.1-3.63,5.44,3.78-.78,6.64-1.91,6.17-4.09Z"/><path class="cls-3" d="M408.8,102.56l.32,14.58c.07,2.45-.11,4-.75,5.15a4.55,4.55,0,0,1-2.94,2.06,5.65,5.65,0,0,1-1.63.16l-.12-2a4.85,4.85,0,0,0,1.13-.12c1.22-.26,2-1.22,1.95-4.24l-.37-15.12Zm-1.24-2.26a1.41,1.41,0,0,1-1.69-1.22,1.66,1.66,0,0,1,1.25-2,1.44,1.44,0,0,1,1.75,1.21,1.62,1.62,0,0,1-1.27,2Z"/><path class="cls-3" d="M424.84,104.94c.93,4.33-1.19,9.5-5.9,10.5-3.52.76-6.06-1.44-6.73-4.61-1-4.62,1.32-9.61,5.88-10.59,3.82-.81,6.11,1.7,6.75,4.7m-10.14,5.27c.48,2.3,2.09,3.69,4.14,3.25,2.86-.61,4.23-4.74,3.53-8-.35-1.63-1.6-3.76-4.12-3.22-3,.65-4.27,4.77-3.55,8"/><path class="cls-3" d="M428.35,113.1l-.22-9.44c0-1.9-.21-3.81-.35-5.15l2.13-.46c.09,1,.19,2,.27,3.14l.08,0c.5-2.11,1.71-3.89,3.59-4.29a4.1,4.1,0,0,1,.68-.09l.05,2.49a3.06,3.06,0,0,0-.66.08c-2.09.44-3.41,3.37-3.32,6.79l.16,6.44Z"/><path class="cls-3" d="M452.21,108c-.18-.84-.32-2.21-.46-3.7h-.05c-.93,3.24-2.62,4.7-4.62,5.12-2.47.53-4.46-1.11-5-3.78-1-4.89,1.46-10.83,7.59-12.14a13.52,13.52,0,0,1,3.91-.26l.13,7.63a33.53,33.53,0,0,0,.78,6.65Zm-1-12.6a6.56,6.56,0,0,0-1.73.16c-3.63.78-5.78,5.22-5,9.12.33,1.56,1.21,3,3.08,2.59s3.83-3.55,3.73-7.45Z"/><path class="cls-3" d="M458.88,109.92a7.73,7.73,0,0,0,3.92.14c2.35-.5,4-2.13,4-6.11l0-2.19h-.08a5.73,5.73,0,0,1-4.25,4c-2.82.6-4.78-1.47-5.31-4-1.05-4.76,1.45-10.25,6.89-11.41a11.58,11.58,0,0,1,4.71,0l.33,12.08c.06,3.09-.29,5.32-1.5,6.89a7.58,7.58,0,0,1-4.57,2.62,8.6,8.6,0,0,1-4.43-.09Zm7.54-17.48a6.12,6.12,0,0,0-2.42,0c-3.52.76-5.14,4.93-4.43,8.43.33,1.54,1.27,3.25,3.42,2.79s3.63-3.51,3.53-6.37Z"/><path class="cls-3" d="M484,86.51l.24,10.37c0,1.63.13,3,.23,4.23l-2.17.47-.19-2.73h-.06a6.4,6.4,0,0,1-4.33,4c-1.81.39-3.89-.08-4.57-3.28a14,14,0,0,1-.24-2.41l-.19-8.29,2.42-.51.19,8.16a9.58,9.58,0,0,0,.18,2.12c.31,1.45,1.13,2.32,2.78,2s3.56-2.88,3.48-6.12l-.18-7.5Z"/><path class="cls-3" d="M497.76,98.28c-.18-.85-.32-2.22-.46-3.71h-.06c-.91,3.24-2.61,4.7-4.61,5.13-2.47.52-4.47-1.12-5-3.79a10,10,0,0,1,7.59-12.14,13.1,13.1,0,0,1,3.9-.25l.14,7.63A32.78,32.78,0,0,0,500,97.8Zm-1.05-12.6a6.42,6.42,0,0,0-1.73.15c-3.63.78-5.79,5.22-5,9.12.33,1.57,1.21,3,3.07,2.59s3.83-3.55,3.74-7.45Z"/></g></g></svg>