<svg xmlns="http://www.w3.org/2000/svg" viewBox="0 0 500 223.68"><defs><style>.cls-1{fill:#fff;}</style></defs><title>tuboplus-logo</title><g id="Capa_2" data-name="Capa 2"><g id="Capa_1-2" data-name="Capa 1"><path class="cls-1" d="M328.48,86.6a66.76,66.76,0,0,1,17.15-6.85h0a44.32,44.32,0,0,1,6.28-1.14L351.81,0,328.22,5.12l.12,81.56C328.4,86.67,328.44,86.61,328.48,86.6ZM161.42,73.12a20.21,20.21,0,0,0-8.14,3.94,35.36,35.36,0,0,0-7.36,8.21l-.06-40.46-23.28,5.07.16,105.17,15.17-3.31,6.38-7.49a18.52,18.52,0,0,0,7,4.29,14.57,14.57,0,0,0,7.69.29q10.81-2.36,18.73-15.47a55.39,55.39,0,0,0,7.87-29.48c0-9.65-2.23-17.55-6.73-23.78S168.57,71.54,161.42,73.12ZM159,123.81c-1.69,3.53-3.9,5.6-6.55,6.18a5.81,5.81,0,0,1-3.39-.25,8.58,8.58,0,0,1-3.05-2.29l0-17q0-6.8,1.84-10.57a7.83,7.83,0,0,1,5.48-4.55c2.55-.58,4.58.45,6.05,3s2.18,6.48,2.21,11.65C161.54,115.65,160.67,120.24,159,123.81ZM90,90.32l.07,44.45A11.24,11.24,0,0,1,88.38,141,6.91,6.91,0,0,1,84,144.32a3,3,0,0,1-3.4-1.34c-.78-1.22-1.15-3.17-1.15-5.89l-.1-44.44L55.89,97.77,56,146.82c0,7,1.86,12.35,5.55,16.21s8.33,5.21,14,4A21,21,0,0,0,84,162.9a36.66,36.66,0,0,0,7.47-8.21l2.24,6.66,20.33-4.41-.14-71.81ZM65.4,83.48V62.17L0,76.41l0,21.3,20.23-4.4.13,83.85,24.12-5.25-.13-83.85ZM244.47,64.85c-6.26-5.19-14.23-6.7-24-4.59A38.65,38.65,0,0,0,196.73,76q-9.06,12.56-9,29.42c0,10.83,2.93,19.09,8.66,24.83s13.79,7.48,24.1,5.23a39.2,39.2,0,0,0,24.43-15.92q9-12.52,9-29.28Q253.85,72.61,244.47,64.85Zm-17.13,45.71c-1.46,3.46-3.69,5.53-6.66,6.16s-5.12-.47-6.6-3.29-2.21-7.42-2.22-13.71.72-11.32,2.21-14.85,3.71-5.58,6.63-6.23,5.13.49,6.6,3.36,2.24,7.54,2.24,14S228.85,107.11,227.34,110.56ZM454.92,38.21c-4.95-.55-7.39-1.88-7.39-4a5,5,0,0,1,1.71-3.85,11.57,11.57,0,0,1,5.11-2.24c5.09-1.13,10.41.15,15.91,3.79V10.58a43,43,0,0,0-20-.3,40.16,40.16,0,0,0-19.81,10.41c-5.4,5.26-8.13,11.23-8.09,17.92a17,17,0,0,0,3.49,10.18c2.35,3.14,7.48,5.43,15.45,6.82a22.2,22.2,0,0,1,6.81,2,3.43,3.43,0,0,1,1.84,3.19,6.74,6.74,0,0,1-2.29,5,11.25,11.25,0,0,1-5.52,2.89c-5.55,1.23-12.14-.55-19.76-5.2l0,21.85c8.3,2.35,16.06,2.76,23.3,1.18a39.34,39.34,0,0,0,21.14-11.74q8.16-9,8.17-19.37C474.94,45.48,468.29,39.76,454.92,38.21ZM392.4,24.52,392.5,69a11.36,11.36,0,0,1-1.74,6.23,6.92,6.92,0,0,1-4.37,3.32A2.92,2.92,0,0,1,383,77.17c-.78-1.2-1.15-3.16-1.16-5.89l-.07-44.42L358.28,32l0,47.05a10.87,10.87,0,0,1,7.55,10.34,10.67,10.67,0,0,1-1,4.53c3.32-.33,6.7-.51,10.09-.51,2.84,0,8.59.31,11.9,1.45a14.48,14.48,0,0,1,1.5.58,37.77,37.77,0,0,0,5.48-6.51l2.26,6.66,20.34-4.41-.13-71.82ZM282.74,150l0-34.12a18,18,0,0,0,6.58,3.07,16,16,0,0,0,6.95,0c.75-.17,1.47-.44,2.23-.69a77.89,77.89,0,0,1,21.1-25.54,59.19,59.19,0,0,0,2.71-18.12q0-14.87-6.71-24.21c-4.5-6.26-10.44-8.56-17.88-6.94a20.66,20.66,0,0,0-8.83,4.31,32.8,32.8,0,0,0-7.14,8.88l-2.3-7.55L259.26,53.5l.17,105.33,21.44-4.67C281.46,152.75,282.1,151.37,282.74,150Zm1.71-80.18a7.69,7.69,0,0,1,5.45-4.4c2.48-.55,4.46.48,6,3.09s2.28,6.63,2.28,12.1a32,32,0,0,1-2.34,13.3c-1.58,3.49-3.75,5.52-6.57,6.14a6,6,0,0,1-3.58-.25,7.52,7.52,0,0,1-2.94-2.33l-.07-17.55C282.64,75.6,283.26,72.26,284.45,69.84ZM372.67,121s-.06-.06-.07-.09-.07-.05-.11-.07c-2.72-2.6-7-2.68-7-2.68a36.51,36.51,0,0,0-8.22.14c-42.15,3.91-78.8,41.2-78.8,86a180.44,180.44,0,0,0,1.68,19.37l1.05-.22c-.3-2.74-.72-8.77-.72-11.56,0-42.45,34.7-77.23,76.28-77.23,2.83,0,8.52.43,10.45.37h.07a8.17,8.17,0,0,0,5.48-14S372.7,121,372.67,121Zm12.9-21.91c-2.57-.87-7.48-1.27-10.6-1.27a99.13,99.13,0,0,0-75.82,34.73c-6.36,7.56-11.62,16.22-16.23,28.34l1.72-.39A81.22,81.22,0,0,1,301.07,138a85.71,85.71,0,0,1,61.16-24.12,109.81,109.81,0,0,1,12.3,1.08c3.38.45,6.49,1,8.07,1.09a4.7,4.7,0,0,0,.51,0,8.64,8.64,0,0,0,2.46-16.92ZM330.65,90.5c-17,10.25-24,22.08-28.56,30.46l1.63-.07c10-10.5,21.16-17.84,36-22,4.94-1.38,12.34-2.39,16.27-3.12a6.45,6.45,0,0,0-.49-12.8,30.15,30.15,0,0,0-8.77,1.13A62.81,62.81,0,0,0,330.65,90.5ZM498.86,61.78a7.87,7.87,0,0,0-3.18-3.16,8.57,8.57,0,0,0-8.4,0,7.83,7.83,0,0,0-3.19,3.16,8.5,8.5,0,0,0,0,8.54,8.07,8.07,0,0,0,3.15,3.17,8.58,8.58,0,0,0,8.51,0,8.16,8.16,0,0,0,3.16-3.17,8.67,8.67,0,0,0,0-8.54Zm-1.22,7.82A6.49,6.49,0,0,1,495,72.24a7,7,0,0,1-7.07,0,6.54,6.54,0,0,1-2.65-2.64,7.19,7.19,0,0,1-.93-3.53,7.12,7.12,0,0,1,1-3.57A6.56,6.56,0,0,1,488,59.86a7.29,7.29,0,0,1,3.5-.92,7.4,7.4,0,0,1,3.49.92,6.56,6.56,0,0,1,2.66,2.64,7.32,7.32,0,0,1,.95,3.57A7,7,0,0,1,497.64,69.6ZM493,67.17a2.48,2.48,0,0,0-.77-.48,2.79,2.79,0,0,0,1.91-.85,2.39,2.39,0,0,0,.72-1.75,2.33,2.33,0,0,0-.43-1.35,2.15,2.15,0,0,0-1.15-.89,7.13,7.13,0,0,0-2.36-.27h-3.14v9.21h1.46V66.88h.88a1.9,1.9,0,0,1,1.2.34,8.19,8.19,0,0,1,1.55,2.13l.81,1.44h1.8L494.34,69A10.8,10.8,0,0,0,493,67.17Zm-2-1.55h-1.81V62.83h1.71a4.67,4.67,0,0,1,1.47.16,1.58,1.58,0,0,1,.65.48,1.37,1.37,0,0,1,.22.74,1.29,1.29,0,0,1-.47,1A2.88,2.88,0,0,1,491,65.62Z"/></g></g></svg>