<?xml version="1.0" encoding="utf-8"?>
<!-- Generator: Adobe Illustrator 25.4.1, SVG Export Plug-In . SVG Version: 6.00 Build 0)  -->
<svg version="1.1" id="Capa_1" xmlns="http://www.w3.org/2000/svg" xmlns:xlink="http://www.w3.org/1999/xlink" x="0px" y="0px"
	 viewBox="0 0 24 24" style="enable-background:new 0 0 24 24;" xml:space="preserve">
<style type="text/css">
	.st0{fill-rule:evenodd;clip-rule:evenodd;fill:#2B73FF;}
	.st1{fill:#FFFFFF;}
</style>
<g>
	<path class="st0" d="M12,0c6.6,0,12,5.4,12,12s-5.4,12-12,12S0,18.6,0,12S5.4,0,12,0z"/>
	<g>
		<path class="st1" d="M18.7,19H16c-0.4,0-0.7-0.3-0.7-0.7v-4.7c0-0.4-0.3-0.7-0.7-0.7c-0.4,0-0.7,0.3-0.7,0.7v4.7
			c0,0.4-0.3,0.7-0.7,0.7h-2.7c-0.4,0-0.7-0.3-0.7-0.7v-4.7c0-2.6,2.1-4.7,4.7-4.7c2.6,0,4.7,2.1,4.7,4.7v4.7
			C19.4,18.7,19.1,19,18.7,19z M16.7,17.7H18v-4c0-1.8-1.5-3.4-3.3-3.4s-3.3,1.5-3.3,3.4v4h1.3v-4c0-1.1,0.9-2,2-2c1.1,0,2,0.9,2,2
			V17.7z"/>
		<path class="st1" d="M8,19H5.3c-0.4,0-0.7-0.3-0.7-0.7v-8c0-0.4,0.3-0.7,0.7-0.7H8c0.4,0,0.7,0.3,0.7,0.7v8C8.7,18.7,8.4,19,8,19z
			 M6,17.7h1.3V11H6V17.7z"/>
		<path class="st1" d="M6.7,9c-1.1,0-2-0.9-2-2c0-1.1,0.9-2,2-2s2,0.9,2,2C8.7,8.1,7.8,9,6.7,9z M6.7,6.3C6.3,6.3,6,6.6,6,7
			c0,0.4,0.3,0.7,0.7,0.7C7,7.6,7.3,7.3,7.3,7C7.3,6.6,7,6.3,6.7,6.3z"/>
	</g>
</g>
</svg>
