<?xml version="1.0" encoding="utf-8"?>
<!-- Generator: Adobe Illustrator 25.4.1, SVG Export Plug-In . SVG Version: 6.00 Build 0)  -->
<svg version="1.1" id="Capa_1" xmlns="http://www.w3.org/2000/svg" xmlns:xlink="http://www.w3.org/1999/xlink" x="0px" y="0px"
	 viewBox="0 0 24 24" style="enable-background:new 0 0 24 24;" xml:space="preserve">
<style type="text/css">
	.st0{fill-rule:evenodd;clip-rule:evenodd;fill:#009CDE;}
	.st1{fill:#FFFFFF;}
</style>
<g>
	<path class="st0" d="M12,0c6.6,0,12,5.4,12,12s-5.4,12-12,12S0,18.6,0,12S5.4,0,12,0z"/>
	<g>
		<path class="st1" d="M15.6,19.4H8.9c-2.2,0-4-1.8-4-4V8.7c0-2.2,1.8-4,4-4h6.7c2.2,0,4,1.8,4,4v6.7C19.6,17.6,17.8,19.4,15.6,19.4
			z M8.9,6C7.4,6,6.2,7.2,6.2,8.7v6.7c0,1.5,1.2,2.7,2.7,2.7h6.7c1.5,0,2.7-1.2,2.7-2.7V8.7c0-1.5-1.2-2.7-2.7-2.7H8.9z"/>
		<path class="st1" d="M12.3,15.3c-0.7,0-1.4-0.2-2-0.7c-0.7-0.5-1.2-1.3-1.3-2.2c-0.3-1.8,1-3.5,2.8-3.8c0.3,0,0.7,0,1,0
			c1.5,0.2,2.6,1.3,2.8,2.8l0,0c0.1,0.9-0.1,1.8-0.6,2.5s-1.3,1.2-2.2,1.3C12.6,15.3,12.4,15.3,12.3,15.3z M12.3,10
			c-0.1,0-0.2,0-0.3,0c-1.1,0.2-1.9,1.2-1.7,2.3s1.2,1.9,2.3,1.7c0.5-0.1,1-0.4,1.3-0.8c0.3-0.4,0.5-1,0.4-1.5l0,0
			c-0.1-0.9-0.8-1.6-1.7-1.7C12.5,10,12.4,10,12.3,10z"/>
		<path class="st1" d="M15.9,9c-0.4,0-0.7-0.3-0.7-0.7c0-0.4,0.3-0.7,0.7-0.7l0,0c0.4,0,0.7,0.3,0.7,0.7S16.3,9,15.9,9z"/>
	</g>
</g>
</svg>
