<?xml version="1.0" encoding="utf-8"?>
<!-- Generator: Adobe Illustrator 25.4.1, SVG Export Plug-In . SVG Version: 6.00 Build 0)  -->
<svg version="1.1" id="Capa_1" xmlns="http://www.w3.org/2000/svg" xmlns:xlink="http://www.w3.org/1999/xlink" x="0px" y="0px"
	 viewBox="0 0 24 24" style="enable-background:new 0 0 24 24;" xml:space="preserve">
<style type="text/css">
	.st0{fill-rule:evenodd;clip-rule:evenodd;fill:#009CDE;}
</style>
<g>
	<path class="st0" d="M11.8,24C5.4,24,0,18.6,0,12.2C0,5.4,5.4,0,11.8,0C18.5,0,24,5.4,24,12.2C24,18.6,18.5,24,11.8,24z M11.8,2.2
		c-5.5,0-9.6,4.4-9.6,10c0,5.2,4.1,9.6,9.6,9.6c5.5,0,10-4.4,10-9.6C21.8,6.6,17.3,2.2,11.8,2.2z M17.1,12.8l-4.6,4.4
		c-0.2,0.2-0.5,0.3-0.8,0.3c-0.3,0-0.6-0.1-0.8-0.3c-0.4-0.4-0.4-1.1,0-1.5l2.5-2.3H7.3c-0.6,0-1.1-0.7-1.1-1.1
		c0-0.8,0.5-1.3,1.1-1.3h6.2L11,8.4c-0.4-0.4-0.4-1.1,0-1.5c0.4-0.4,1.5-0.4,1.6,0l4.6,4.4c0,0.1,0,0.2,0.1,0.4
		c0.1,0.3,0.1,0.6,0,0.8C17.2,12.7,17.1,12.7,17.1,12.8z"/>
</g>
</svg>
