<?xml version="1.0" encoding="utf-8"?>
<!-- Generator: Adobe Illustrator 25.4.1, SVG Export Plug-In . SVG Version: 6.00 Build 0)  -->
<svg version="1.1" id="Capa_1" xmlns="http://www.w3.org/2000/svg" xmlns:xlink="http://www.w3.org/1999/xlink" x="0px" y="0px"
	 viewBox="0 0 24 24" style="enable-background:new 0 0 24 24;" xml:space="preserve">
<style type="text/css">
	.st0{fill-rule:evenodd;clip-rule:evenodd;fill:#009CDE;}
	.st1{fill:#FFFFFF;}
</style>
<g>
	<path class="st0" d="M12,0c6.6,0,12,5.4,12,12s-5.4,12-12,12S0,18.6,0,12S5.4,0,12,0z"/>
	<path class="st1" d="M12.4,19.4H9.7c-0.4,0-0.7-0.3-0.7-0.7V14H7.8c-0.4,0-0.7-0.3-0.7-0.7v-2.7c0-0.4,0.3-0.7,0.7-0.7h1.3V8.7
		c0-2.2,1.8-4,4-4h2c0.4,0,0.7,0.3,0.7,0.7V8c0,0.4-0.3,0.7-0.7,0.7h-2V10h2c0.2,0,0.4,0.1,0.5,0.3s0.2,0.4,0.1,0.6L15,13.5
		c-0.1,0.3-0.3,0.5-0.6,0.5h-1.3v4.7C13.1,19.1,12.8,19.4,12.4,19.4z M10.4,18h1.3v-4.7c0-0.4,0.3-0.7,0.7-0.7h1.5l0.3-1.3h-1.8
		c-0.4,0-0.7-0.3-0.7-0.7v-2c0-0.7,0.6-1.3,1.3-1.3h1.3V6H13c-1.5,0-2.6,1.2-2.6,2.7v2c0,0.4-0.3,0.7-0.7,0.7H8.4v1.3h1.3
		c0.4,0,0.7,0.3,0.7,0.7V18z"/>
</g>
</svg>
