<?xml version="1.0" encoding="utf-8"?>
<!-- Generator: Adobe Illustrator 25.4.1, SVG Export Plug-In . SVG Version: 6.00 Build 0)  -->
<svg version="1.1" id="Capa_1" xmlns="http://www.w3.org/2000/svg" xmlns:xlink="http://www.w3.org/1999/xlink" x="0px" y="0px"
	 viewBox="0 0 60 60" style="enable-background:new 0 0 60 60;" xml:space="preserve">
<style type="text/css">
	.st0{fill:#002554;}
	.st1{fill:#009CDE;}
</style>
<g>
	<rect class="st0" width="60" height="60"/>
	<g>
		<path class="st1" d="M31.1,44.5H29c-1,0-1.6-0.6-1.6-1.6V32.6H16.6c-1,0-1.6-0.6-1.6-1.6v-2c0-1,0.6-1.6,1.6-1.6h10.8V17.1
			c0-1,0.6-1.6,1.6-1.6h2.2c1,0,1.6,0.6,1.6,1.6v10.4h10.7c1,0,1.6,0.6,1.6,1.6v2c0,1-0.6,1.6-1.6,1.6H32.7v10.3
			C32.7,43.9,32.2,44.5,31.1,44.5z"/>
	</g>
</g>
</svg>
