<?xml version="1.0" encoding="utf-8"?>
<!-- Generator: Adobe Illustrator 25.4.1, SVG Export Plug-In . SVG Version: 6.00 Build 0)  -->
<svg version="1.1" id="Capa_1" xmlns="http://www.w3.org/2000/svg" xmlns:xlink="http://www.w3.org/1999/xlink" x="0px" y="0px"
	 viewBox="0 0 24 24" style="enable-background:new 0 0 24 24;" xml:space="preserve">
<style type="text/css">
	.st0{fill-rule:evenodd;clip-rule:evenodd;fill:#009CDE;}
</style>
<g>
	<path class="st0" d="M12.2,0C18.6,0,24,5.4,24,11.8C24,18.6,18.6,24,12.2,24C5.5,24,0,18.6,0,11.8C0,5.4,5.5,0,12.2,0z M12.2,21.8
		c5.5,0,9.6-4.4,9.6-10c0-5.2-4.1-9.6-9.6-9.6c-5.5,0-10,4.4-10,9.6C2.2,17.4,6.7,21.8,12.2,21.8z M6.9,11.2l4.6-4.4
		c0.2-0.2,0.5-0.3,0.8-0.3c0.3,0,0.6,0.1,0.8,0.3c0.4,0.4,0.4,1.1,0,1.5l-2.5,2.3h6.2c0.6,0,1.1,0.7,1.1,1.1c0,0.8-0.5,1.3-1.1,1.3
		h-6.2l2.5,2.5c0.4,0.4,0.4,1.1,0,1.5c-0.4,0.4-1.5,0.4-1.6,0l-4.6-4.4c0-0.1,0-0.2-0.1-0.4c-0.1-0.3-0.1-0.6,0-0.8
		C6.8,11.3,6.9,11.3,6.9,11.2z"/>
</g>
</svg>
