<?xml version="1.0" encoding="utf-8"?>
<!-- Generator: Adobe Illustrator 25.4.1, SVG Export Plug-In . SVG Version: 6.00 Build 0)  -->
<svg version="1.1" id="Capa_1" xmlns="http://www.w3.org/2000/svg" xmlns:xlink="http://www.w3.org/1999/xlink" x="0px" y="0px"
	 viewBox="0 0 24 24" style="enable-background:new 0 0 24 24;" xml:space="preserve">
<style type="text/css">
	.st0{fill-rule:evenodd;clip-rule:evenodd;fill:#009CDE;}
	.st1{fill-rule:evenodd;clip-rule:evenodd;fill:#FFFFFF;}
</style>
<path class="st0" d="M12,0c6.6,0,12,5.4,12,12s-5.4,12-12,12S0,18.6,0,12S5.4,0,12,0z"/>
<path class="st1" d="M20.7,16.3c-0.3,0.7-1,1.5-2,1.8c-1.4,0.4-6.1,0.4-6.7,0.4c-0.5,0-5.3,0-6.7-0.4c-1-0.3-1.7-1-2-2
	C3.1,14.8,2.9,13.4,3,12c0-1.4,0.1-2.6,0.4-4.1c0.3-1,1-1.8,2-2.1c1.4-0.4,6.1-0.4,6.7-0.4c0.5,0,5.3,0,6.9,0.3
	c0.8,0.3,1.5,1,1.8,2.1c0,0,0,0,0,0c0.2,1.4,0.4,2.7,0.4,4.1C21,13.4,20.9,14.7,20.7,16.3z M19.2,8.2c-0.1-0.5-0.5-0.8-0.9-0.9
	C17.3,7,13.4,7,12,7c-1.7,0-5.4,0.1-6.3,0.3c-0.5,0.1-0.8,0.5-0.9,1C4.6,9.5,4.5,10.9,4.5,12c0,1.3,0.1,2.7,0.3,3.9
	c0.1,0.4,0.5,0.7,0.9,0.8c0.9,0.2,4.6,0.5,6.3,0.5c2,0,5.4-0.3,6.3-0.5c0.5-0.1,0.8-0.5,0.9-1c0.2-1.2,0.3-2.5,0.3-3.7
	C19.5,10.9,19.4,9.4,19.2,8.2z M10.7,15.4c-0.1-0.3,0-0.2-0.4-0.2c-0.1,0-0.3,0-0.3,0.2c-0.3-0.4-0.5-0.3-0.5-0.6V9.6
	c0-0.3,0.1-0.5,0.5-0.6c0.1,0,0.8,0,0.7,0l4.3,2.4c-0.5,0.1-0.6,0.5-0.6,0.7c0,0.3,0.2,0.5,0.6,0.7L10.7,15.4z M11.1,10.9v2.7
	l2.1-1.5L11.1,10.9z"/>
<circle class="st1" cx="10.3" cy="14.8" r="0.8"/>
<circle class="st1" cx="10.3" cy="9.6" r="0.8"/>
<circle class="st1" cx="14.6" cy="12.1" r="0.8"/>
</svg>
