<?xml version="1.0" encoding="utf-8"?>
<!-- Generator: Adobe Illustrator 25.4.1, SVG Export Plug-In . SVG Version: 6.00 Build 0)  -->
<svg version="1.1" id="Capa_1" xmlns="http://www.w3.org/2000/svg" xmlns:xlink="http://www.w3.org/1999/xlink" x="0px" y="0px"
	 viewBox="0 0 10 11" style="enable-background:new 0 0 10 11;" xml:space="preserve">
<style type="text/css">
	.st0{fill:#009CDE;}
</style>
<path class="st0" d="M8.3,10H8.2C6.8,9.9,5.5,9.4,4.4,8.7C3.4,8,2.5,7.1,1.8,6.1C1.1,5,0.6,3.7,0.5,2.3c0-0.3,0.1-0.7,0.3-0.9
	S1.3,1,1.6,1h0.1H3l0,0c0.6,0,1.1,0.4,1.2,1c0,0.4,0.1,0.7,0.3,1.1c0.2,0.5,0.1,1-0.3,1.3L3.9,4.7C4.4,5.5,5,6.1,5.8,6.6l0.3-0.3
	C6.4,6,6.9,5.9,7.4,6c0.3,0.1,0.7,0.2,1.1,0.3c0.6,0.1,1.1,0.6,1.1,1.3v1.2c0,0.3-0.1,0.6-0.4,0.9C8.9,9.9,8.6,10,8.3,10L8.3,10z
	 M3,1.8L3,1.8H1.7c-0.1,0-0.2,0.1-0.3,0.1C1.3,2,1.3,2.1,1.3,2.2c0.1,1.2,0.5,2.4,1.2,3.4c0.6,1,1.4,1.8,2.4,2.4
	c1,0.7,2.2,1.1,3.4,1.2c0.1,0,0.2,0,0.3-0.1C8.7,9,8.7,8.9,8.7,8.8V7.6l0,0c0-0.2-0.1-0.4-0.4-0.4C7.9,7.1,7.5,7,7.1,6.8
	c-0.2-0.1-0.3,0-0.4,0.1L6.1,7.4C6,7.6,5.8,7.6,5.6,7.5C4.5,6.9,3.6,6,3,4.9C2.9,4.7,2.9,4.5,3.1,4.4l0.5-0.5
	c0.1-0.1,0.1-0.3,0.1-0.4C3.5,3,3.4,2.6,3.4,2.1C3.3,1.9,3.2,1.8,3,1.8z"/>
</svg>
