<?xml version="1.0" encoding="utf-8"?>
<!-- Generator: Adobe Illustrator 25.4.1, SVG Export Plug-In . SVG Version: 6.00 Build 0)  -->
<svg version="1.1" id="Capa_1" xmlns="http://www.w3.org/2000/svg" xmlns:xlink="http://www.w3.org/1999/xlink" x="0px" y="0px"
	 viewBox="0 0 10 8.2" style="enable-background:new 0 0 10 8.2;" xml:space="preserve">
<style type="text/css">
	.st0{fill:#009CDE;}
</style>
<path class="st0" d="M8.6,0H1.4C0.6,0,0,0.6,0,1.3v5.5c0,0.8,0.6,1.4,1.4,1.4h7.3c0.7,0,1.3-0.6,1.3-1.3V1.3C10,0.6,9.4,0,8.6,0z
	 M1.4,0.9h7.3C8.8,0.9,9,1,9,1.1L5,4L1,1.1C1,1,1.2,0.9,1.4,0.9z M8.6,7.3H1.4c-0.3,0-0.5-0.2-0.5-0.5V2.2l3.8,2.7C4.8,5,4.9,5,5,5
	s0.2,0,0.3-0.1l3.8-2.7v4.6C9.1,7.1,8.9,7.3,8.6,7.3z"/>
</svg>
