<?xml version="1.0" encoding="utf-8"?>
<!-- Generator: Adobe Illustrator 25.4.1, SVG Export Plug-In . SVG Version: 6.00 Build 0)  -->
<svg version="1.1" id="Capa_1" xmlns="http://www.w3.org/2000/svg" xmlns:xlink="http://www.w3.org/1999/xlink" x="0px" y="0px"
	 viewBox="0 0 85.4 38.4" style="enable-background:new 0 0 85.4 38.4;" xml:space="preserve">
<style type="text/css">
	.st0{fill:#008265;}
</style>
<g>
	<path class="st0" d="M56.1,14.9c1-0.6,1.9-0.9,2.9-1.2h0c0.4-0.1,0.8-0.2,1.1-0.2l0-13.5l-4,0.9L56.1,14.9
		C56.1,14.9,56.1,14.9,56.1,14.9"/>
	<path class="st0" d="M27.2,21.3c-0.3,0.6-0.7,1-1.1,1.1c-0.2,0-0.4,0-0.6,0c-0.2-0.1-0.4-0.2-0.5-0.4l0-2.9c0-0.8,0.1-1.4,0.3-1.8
		c0.2-0.4,0.5-0.7,0.9-0.8c0.4-0.1,0.8,0.1,1,0.5c0.2,0.4,0.4,1.1,0.4,2C27.6,19.9,27.5,20.6,27.2,21.3 M27.6,12.6
		c-0.5,0.1-0.9,0.3-1.4,0.7c-0.4,0.3-0.9,0.8-1.3,1.4l0-6.9l-4,0.9l0,18.1l2.6-0.6l1.1-1.3c0.4,0.4,0.8,0.6,1.2,0.7
		c0.4,0.1,0.9,0.2,1.3,0c1.2-0.3,2.3-1.2,3.2-2.7c0.9-1.5,1.4-3.2,1.3-5.1c0-1.7-0.4-3-1.1-4.1C29.8,12.7,28.8,12.3,27.6,12.6"/>
	<path class="st0" d="M15.4,15.5l0,7.6c0,0.4-0.1,0.8-0.3,1.1c-0.2,0.3-0.4,0.5-0.7,0.6c-0.3,0.1-0.4,0-0.6-0.2
		c-0.1-0.2-0.2-0.5-0.2-1l0-7.6l-4,0.9l0,8.4c0,1.2,0.3,2.1,0.9,2.8c0.6,0.7,1.4,0.9,2.4,0.7c0.5-0.1,1-0.3,1.5-0.7
		c0.5-0.4,0.9-0.8,1.3-1.4l0.4,1.1l3.5-0.8l0-12.3L15.4,15.5z"/>
	<path class="st0" d="M11.2,14.3v-3.7L0,13.1l0,3.7L3.5,16l0,14.4l4.1-0.9l0-14.4L11.2,14.3z"/>
	<path class="st0" d="M38.8,19c-0.2,0.6-0.6,0.9-1.1,1.1c-0.5,0.1-0.9-0.1-1.1-0.6c-0.3-0.5-0.4-1.3-0.4-2.4c0-1.1,0.1-1.9,0.4-2.6
		c0.3-0.6,0.6-1,1.1-1.1c0.5-0.1,0.9,0.1,1.1,0.6c0.3,0.5,0.4,1.3,0.4,2.4C39.2,17.6,39.1,18.4,38.8,19 M41.8,11.1
		c-1.1-0.9-2.4-1.1-4.1-0.8c-1.7,0.4-3,1.3-4.1,2.7c-1,1.4-1.5,3.1-1.5,5.1c0,1.9,0.5,3.3,1.5,4.3c1,1,2.4,1.3,4.1,0.9
		c1.8-0.4,3.2-1.3,4.2-2.7c1-1.4,1.5-3.1,1.5-5C43.4,13.5,42.8,12,41.8,11.1"/>
	<path class="st0" d="M77.7,6.6c-0.8-0.1-1.3-0.3-1.3-0.7c0-0.3,0.1-0.5,0.3-0.7C77,5,77.3,4.9,77.6,4.8c0.9-0.2,1.8,0,2.7,0.7
		l0-3.7c-1.1-0.3-2.3-0.3-3.4,0c-1.3,0.3-2.5,0.9-3.4,1.8c-0.9,0.9-1.4,1.9-1.4,3.1c0,0.6,0.2,1.2,0.6,1.7c0.4,0.5,1.3,0.9,2.6,1.2
		c0.6,0.1,1,0.2,1.2,0.3c0.2,0.1,0.3,0.3,0.3,0.5c0,0.3-0.1,0.6-0.4,0.9c-0.3,0.3-0.6,0.4-0.9,0.5c-0.9,0.2-2.1-0.1-3.4-0.9l0,3.8
		c1.4,0.4,2.7,0.5,4,0.2c1.5-0.3,2.7-1,3.6-2c0.9-1,1.4-2.1,1.4-3.3C81.2,7.8,80,6.8,77.7,6.6"/>
	<path class="st0" d="M67.1,4.2l0,7.6c0,0.4-0.1,0.8-0.3,1.1c-0.2,0.3-0.5,0.5-0.7,0.6c-0.3,0.1-0.4,0-0.6-0.2
		c-0.1-0.2-0.2-0.5-0.2-1l0-7.6l-4,0.9l0,8.1c0.8,0.2,1.3,0.9,1.3,1.8c0,0.3-0.1,0.5-0.2,0.8c0.6-0.1,1.1-0.1,1.7-0.1
		c0.5,0,1.5,0.1,2,0.2c0.1,0,0.2,0.1,0.3,0.1c0.3-0.3,0.6-0.7,0.9-1.1l0.4,1.1l3.5-0.8l0-12.3L67.1,4.2z"/>
	<path class="st0" d="M48.6,12c0.2-0.4,0.5-0.7,0.9-0.8c0.4-0.1,0.8,0.1,1,0.5c0.3,0.4,0.4,1.1,0.4,2.1c0,0.9-0.1,1.7-0.4,2.3
		c-0.3,0.6-0.6,0.9-1.1,1.1c-0.2,0-0.4,0-0.6,0c-0.2-0.1-0.4-0.2-0.5-0.4l0-3C48.3,13,48.4,12.4,48.6,12 M48.3,25.8l0-5.9
		c0.4,0.3,0.7,0.4,1.1,0.5c0.4,0.1,0.8,0.1,1.2,0c0.1,0,0.3-0.1,0.4-0.1c0.6-1,1.5-2.7,3.6-4.4c0.3-1,0.5-2,0.5-3.1
		c0-1.7-0.4-3.1-1.1-4.2c-0.8-1.1-1.8-1.5-3.1-1.2c-0.6,0.1-1.1,0.4-1.5,0.7c-0.4,0.4-0.9,0.9-1.2,1.5l-0.4-1.3l-3.4,0.8l0,18.1
		l3.7-0.8C48.1,26.2,48.2,26,48.3,25.8"/>
	<path class="st0" d="M63.7,20.8C63.7,20.8,63.7,20.8,63.7,20.8C63.7,20.8,63.7,20.8,63.7,20.8c-0.5-0.5-1.2-0.5-1.2-0.5
		c-0.6-0.1-0.9,0-1.4,0c-7.2,0.7-13.5,7.1-13.5,14.8c0,0.9,0.2,2.5,0.3,3.3l0.2,0c-0.1-0.5-0.1-1.5-0.1-2c0-7.3,5.9-13.3,13-13.3
		c0.5,0,1.5,0.1,1.8,0.1h0c0.8,0,1.4-0.6,1.4-1.4C64.1,21.4,64,21,63.7,20.8C63.7,20.8,63.7,20.8,63.7,20.8"/>
	<path class="st0" d="M65.9,17c-0.4-0.1-1.3-0.2-1.8-0.2c-5.2,0-9.9,2.3-13,6c-1.1,1.3-2,2.8-2.8,4.9l0.3-0.1
		c0.8-1.6,1.7-2.8,2.8-3.9c2.7-2.6,6.4-4.2,10.5-4.1c0.7,0,1.4,0.1,2.1,0.2c0.6,0.1,1.1,0.2,1.4,0.2c0,0,0.1,0,0.1,0
		c0.8,0,1.5-0.7,1.5-1.5C66.9,17.8,66.5,17.2,65.9,17"/>
	<path class="st0" d="M58,17c0.8-0.2,2.1-0.4,2.8-0.5c0.5-0.1,0.9-0.5,0.9-1.1c0-0.6-0.4-1.1-1-1.1c-0.4,0-0.9,0.1-1.5,0.2
		c-0.9,0.2-1.7,0.5-2.7,1.1c-2.9,1.8-4.1,3.8-4.9,5.2l0.3,0C53.6,19,55.5,17.7,58,17"/>
	<path class="st0" d="M84,9.9c0.2,0,0.5,0.1,0.7,0.2c0.2,0.1,0.4,0.3,0.5,0.5c0.1,0.2,0.2,0.5,0.2,0.7c0,0.3-0.1,0.5-0.2,0.7
		c-0.1,0.2-0.3,0.4-0.5,0.5c-0.2,0.1-0.5,0.2-0.7,0.2c-0.3,0-0.5-0.1-0.7-0.2c-0.2-0.1-0.4-0.3-0.5-0.5c-0.1-0.2-0.2-0.5-0.2-0.7
		c0-0.3,0.1-0.5,0.2-0.7c0.1-0.2,0.3-0.4,0.5-0.5C83.5,9.9,83.7,9.9,84,9.9 M84,10.1c-0.2,0-0.4,0.1-0.6,0.2
		c-0.2,0.1-0.3,0.3-0.5,0.5c-0.1,0.2-0.2,0.4-0.2,0.6c0,0.2,0.1,0.4,0.2,0.6c0.1,0.2,0.3,0.3,0.5,0.5c0.2,0.1,0.4,0.2,0.6,0.2
		c0.2,0,0.4-0.1,0.6-0.2c0.2-0.1,0.3-0.3,0.5-0.5c0.1-0.2,0.2-0.4,0.2-0.6c0-0.2-0.1-0.4-0.2-0.6c-0.1-0.2-0.3-0.3-0.5-0.5
		C84.4,10.2,84.2,10.1,84,10.1 M83.3,12.2v-1.6h0.5c0.2,0,0.3,0,0.4,0c0.1,0,0.1,0.1,0.2,0.2c0,0.1,0.1,0.1,0.1,0.2
		c0,0.1,0,0.2-0.1,0.3c-0.1,0.1-0.2,0.1-0.3,0.1c0.1,0,0.1,0.1,0.1,0.1c0.1,0.1,0.1,0.2,0.2,0.3l0.2,0.3h-0.3l-0.1-0.2
		c-0.1-0.2-0.2-0.3-0.3-0.4c0,0-0.1-0.1-0.2-0.1h-0.2v0.7H83.3z M83.6,11.3h0.3c0.2,0,0.2,0,0.3-0.1c0.1,0,0.1-0.1,0.1-0.2
		c0,0,0-0.1,0-0.1c0,0-0.1-0.1-0.1-0.1c0,0-0.1,0-0.3,0h-0.3V11.3z"/>
</g>
</svg>
